<svg width="781" height="520" viewBox="0 0 781 520" fill="none" xmlns="http://www.w3.org/2000/svg">
<path d="M366.692 283.641C354.159 278.746 349.822 264.04 351.296 251.354C351.367 250.754 351.151 249.993 350.594 249.829C348.61 249.237 343.998 247.068 343.716 247.229C343.229 247.503 340.124 267.652 327.241 273.001C319.618 276.166 313.359 270.86 310.512 263.774C304.935 249.88 308.869 228.111 320.084 217.997C323.849 214.601 326.52 215.174 326.516 213.538L326.465 199.189C326.457 197.193 326.002 195.393 326.069 193.648C324.833 193.903 324.088 194.276 323.131 194.695L317.943 196.97C315.351 198.107 317.724 202.809 314.618 203.131C313.924 203.201 313.084 202.738 312.818 201.821C311.794 198.334 314.539 194.476 317.488 192.911C319.892 191.633 322.171 190.374 324.7 189.319C327.908 187.982 326.453 185.256 329.92 185.209L333.382 185.162C334.32 185.15 335.006 184.715 335.386 183.927C336.677 181.26 340.99 176.268 344.869 177.154C345.006 175.883 344.877 174.66 344.457 173.503C343.12 174.856 339.092 176.138 339.59 173.946L340.104 171.687L336.955 171.605C336.363 171.589 335.48 171.229 335.504 170.499C335.543 169.334 336.524 168.715 337.386 168.299C338.841 167.597 337.01 167.695 335.347 166.287C334.892 165.903 334.488 165.048 335.018 164.66C335.826 164.068 336.727 164.048 337.763 163.656C337.943 163.142 337.124 162.142 337.575 161.66C338.649 160.503 340.869 161.907 341.41 160.883C341.806 160.134 336.888 152.154 346.006 146.785C350.88 143.915 357.763 144.656 359.896 147.934C361.606 150.566 366.441 155.389 362.629 156.017C359.786 156.483 362.367 159.213 360.994 164.746C358.967 172.923 353.437 168.868 354.939 176.562C355.222 178.017 356.978 177.099 359.21 180.315L363.916 187.091C365.99 190.08 367.539 193.264 369.79 196.123L378.151 206.731C378.873 207.648 379.629 208.334 380.935 208.178L387.01 207.452C394.814 206.523 399.606 213.585 403.049 219.715L408.837 230.013C411.665 235.044 419.237 252.213 420.857 257.833C421.218 259.091 420.873 260.284 420.081 261.225C418.751 262.801 420.316 263.884 419.939 266.327C419.634 268.307 416.763 266.37 415.598 265.072C412.822 261.986 409.735 254.715 406.308 249.688C405.135 247.966 406.143 256.378 406.19 257.766L406.304 261.205C406.332 262.009 406.606 262.684 407.222 263.123C410.551 265.511 410.669 271.366 409.159 274.919C408.202 277.174 405.641 277.931 403.637 276.535C401.002 274.699 400.453 270.252 400.743 267.154C401.033 264.056 403.457 263.77 403.351 261.727C403.096 256.829 402.5 245.876 400.869 241.868C400.735 241.542 399.79 241.605 399.794 241.848C399.81 243.229 400.214 244.531 400.347 245.993C401.496 258.597 396.861 272.272 386.657 280.068C380.967 284.417 373.512 286.307 366.7 283.644L366.692 283.641ZM346.316 177.397C346.618 177.997 353.677 178.813 353.606 176.817L353.484 173.346C353.441 172.044 354.092 171.103 355.175 170.487C359.582 168.021 361.229 162.793 359.896 158.134C358.041 160.389 355.688 162.197 352.884 163.691C351.939 164.193 351.324 165.06 351.543 166.142C351.708 167.852 353.441 175.64 349.904 175.115L348.626 172.95C347.849 174.311 345.673 176.138 346.312 177.397H346.316ZM360.116 196.134C360.249 195.664 360.9 195.009 361.359 195.283C362.469 195.938 363.088 199.138 364.806 201.715C368.673 207.527 370.928 210.295 375.673 215.433C378.602 218.605 380.982 220.142 384.637 222.484C387.022 224.009 389.469 221.825 390.916 219.997C391.233 219.597 391.014 219.119 390.559 218.88C386.763 216.852 383.457 214.362 380.516 211.15C376.241 206.484 372.422 201.668 368.649 196.578C366.465 193.629 364.735 190.582 362.747 187.515C361.08 184.95 359.363 182.589 357.551 180.131C356.775 179.072 355.535 178.534 354.21 178.754C345.014 180.268 343.998 176.531 340.41 179.821C338.79 181.303 337.304 182.687 336.269 184.997C340.626 186.013 344.01 186.868 348.304 188.742C351.673 190.213 352.72 193.24 352.449 196.844C352.257 199.393 352.543 201.695 352.629 204.185L352.88 211.229L352.755 215.856C352.728 216.86 353.167 217.633 354.022 218.103L358.045 220.315L365.743 224.35C368.186 225.633 370.375 221.06 379.347 221.527C381.586 221.644 378.68 220.135 376.304 217.684C375.12 216.464 368.563 218.331 365.273 213.182C362.9 209.464 358.967 200.185 360.124 196.138L360.116 196.134ZM351.622 216.138C351.704 213.087 351.833 210.499 351.559 207.805C351.061 202.923 351.68 198.911 350.869 194.805C349.261 196.182 347.371 197.013 345.473 198.174L340.171 201.409C338.273 202.57 340.814 209.021 337.076 208.907C334.1 208.817 335.19 202.597 335.818 200.538C337.159 196.127 345.002 193.256 348.437 190.527C344.171 187.021 335.151 185.923 329.441 186.578C327.01 186.856 327.657 190.923 327.422 193.28C327.222 195.315 327.437 197.17 327.559 199.205C327.88 204.613 327.182 211.448 328.049 215.993C328.367 217.648 328.065 219.272 328.084 220.982L328.19 229.044C328.245 233.158 328.073 237.103 331.253 239.142C334.288 241.088 337.375 242.66 340.653 244.166L348.473 247.762C349.5 248.237 350.414 248.582 351.418 248.786C351.975 247.417 352.567 246.099 352.418 244.613C352.002 240.515 351.488 221.111 351.622 216.142V216.138ZM369.963 210.903C366.696 206.55 363.571 202.825 361.48 197.993C361.504 197.362 360.888 197.397 361.112 197.895C361.751 201.997 362.402 204.574 363.994 208.193C365.033 210.558 367.559 211.264 369.963 210.907V210.903ZM418.539 259.072C418.743 259.625 419.077 259.66 419.241 259.633C421.626 259.264 411.684 238.766 410.732 236.68C408.873 232.601 406.83 228.876 404.633 225.001L401.681 219.793C399.975 216.785 398.033 214.06 395.575 211.629C391.649 207.75 386.198 208.291 381.077 209.605C382.328 211.691 383.43 213.076 385.99 212.707C389.786 212.158 395.222 213.229 398.131 216.546C399.563 218.178 400.994 219.864 401.963 221.844L404.457 226.942L409.261 237.687C411.818 243.409 414.708 248.754 416.896 254.648L418.539 259.076V259.072ZM370.131 212.37L366.637 212.087C366.198 212.052 366.194 212.417 366.445 212.754C369.033 216.185 374.186 216.233 373.873 215.511C373.277 214.154 371.943 212.511 370.131 212.366V212.37ZM406.637 247.664C408.614 250.813 410.422 253.88 412.135 257.189C413.398 259.625 415.81 264.605 418.426 265.542C419.916 266.08 415.626 254.77 415.257 253.852C413.183 248.707 410.728 243.958 408.461 238.891L404.716 230.515C400.845 221.86 397.033 212.327 386.261 214.025C384.571 214.291 390.394 217.346 390.837 217.562C393.026 218.636 391.916 220.354 394.433 221.884C396.343 223.044 398.932 224.558 399.626 226.515C399.982 227.523 399.469 228.397 398.469 228.77C396.469 229.523 395.281 228.746 393.849 229.303C395.767 231.805 397.312 234.476 398.39 237.57C399.077 239.538 402.253 237.076 403.982 240.652C405.343 243.464 404.555 244.346 406.63 247.656L406.637 247.664ZM327.053 230.774C326.986 227.052 327.022 222.393 326.292 218.836L322.335 220.931C321.731 221.319 321.461 221.864 321.484 222.613L327.12 242.135C327.684 242.272 327.735 241.695 327.786 241.217C328.841 238.15 327.139 235.711 327.049 230.774H327.053ZM396.708 224.864L392.622 221.982C391.061 220.88 389.606 222.95 388.104 224.135C389.386 225.084 390.535 226.284 392.1 227.111C394.037 228.135 397.802 228.06 398.339 227.268C398.728 226.695 397.528 225.444 396.704 224.864H396.708ZM326.214 243.989C326.088 242.684 325.673 241.676 325.335 240.464L322.598 230.625C321.904 228.127 321.339 225.77 320.343 223.421C320.225 223.146 319.669 223.378 319.457 223.652C316.669 227.268 314.712 231.17 313.469 235.57C313.276 236.248 313.61 236.911 314.218 237.252C318.053 239.389 321.68 241.444 325.363 243.829C325.649 244.013 325.9 244.186 326.21 243.993L326.214 243.989ZM361.524 229.111C361.818 228.786 361.665 228.389 361.308 228.189C360.563 227.77 353.104 223.597 353.033 224.397C352.775 227.374 353.018 230.052 353.151 232.958L353.551 241.535C353.916 241.821 354.029 240.958 354.167 240.586C355.814 236.189 358.418 232.523 361.52 229.111H361.524ZM376.528 250.382L378.657 243.307L381.841 233.833L383.249 229.437C384.273 226.24 371.759 225.848 372.335 228.989L372.81 231.582C373.637 236.095 373.979 240.491 374.822 245.001L375.924 251.362C376.52 251.409 376.504 250.86 376.524 250.378L376.528 250.382ZM373.779 246.24L372.751 239.613L371.794 233.064C371.575 231.546 371.406 230.119 370.81 228.872C370.343 227.899 362.092 234.515 363.182 236.091L374.222 252.021C374.139 252.703 374.857 252.566 374.441 252.056C374.284 250.076 374.104 248.335 373.779 246.244V246.24ZM382.265 248.06L387.963 242.299L391.3 238.676C393.073 236.75 387.135 230.182 384.857 229.142C383.81 231.287 383.041 233.546 382.379 236.029C381.908 237.801 381.194 239.401 380.68 241.146L377.328 252.538C376.849 253.158 377.637 253.315 377.492 252.366C379.128 250.899 380.747 249.593 382.261 248.06H382.265ZM371.971 252.676C372.379 252.797 372.947 252.746 372.982 252.48L362.684 237.484C361.182 235.295 356.971 246.919 357.555 248.127C357.633 248.291 363.688 250.197 364.739 250.511L371.975 252.672L371.971 252.676ZM325.053 245.558C324.61 244.558 323.79 244.437 323.182 243.876C319.857 241.876 316.716 239.966 313.28 238.209C312.049 237.582 311.727 247.511 311.68 248.531C311.798 249.225 311.582 249.86 312.116 250.374L325.053 245.554V245.558ZM329.225 242.495C330.159 242.327 330.943 241.966 332.018 241.425C331.441 240.621 330.629 240.123 329.578 239.66C329.343 240.135 328.28 242.668 329.225 242.495ZM394.073 250.931C395.398 250.578 393.269 238.335 392.108 239.609C388.582 243.488 385.131 247.08 381.312 250.621C380.116 251.731 378.951 252.66 378.21 254.178C380.535 254.178 382.524 253.774 384.731 253.417L394.077 250.931H394.073ZM339.076 249.323C339.712 247.401 340.402 245.284 338.626 244.535C333.649 242.437 335.108 241.178 328.975 244.111C329.018 244.593 329.441 244.821 329.912 245.076L336.81 248.558C337.575 248.899 338.218 249.342 339.076 249.323ZM337.508 250.213L332.829 248.001C331.296 247.28 330.018 246.484 328.484 245.931C330.582 249.946 332.535 252.539 334.653 256.935C334.951 257.437 334.99 257.989 335.786 258.342C336.504 256.244 339.896 251.339 337.512 250.213H337.508ZM315.292 263.891C315.465 263.876 315.806 263.621 315.971 263.319L324.598 247.801C324.782 247.472 324.575 247.146 324.245 247.256C321.476 248.139 318.884 249.244 316.061 250.248L312.618 251.476C312.198 251.625 311.759 252.025 311.833 252.527C312.108 254.342 314.292 263.986 315.292 263.891ZM334.014 258.284L330.755 252.209C329.971 250.742 328.916 249.546 328.163 247.95C328.19 247.264 327.704 247.37 327.531 247.97L327.265 256.017L327.449 261.205C327.535 263.637 327.406 265.86 328.069 268.193C330.935 265.868 335.786 261.586 334.018 258.288L334.014 258.284ZM326.159 259.789C325.951 256.17 326.143 252.488 326.331 248.499C326.547 247.954 326.069 247.888 325.802 248.413L316.676 264.605C315.731 266.284 319.759 271.358 325.763 269.519C327.178 269.084 326.288 262.009 326.163 259.786L326.159 259.789ZM373.433 254.746C373.661 254.35 372.971 254.237 372.52 254.174C366.963 252.276 362.794 250.993 357.057 249.437C356.245 252.974 356.127 256.613 356.657 260.221C357.186 260.295 357.629 260.189 358.163 260.001L368.751 256.248C370.245 255.719 371.433 255.193 373.429 254.746H373.433ZM393.03 260.574C393.512 259.637 395.182 252.06 393.837 252.37L387.006 253.939C384.426 254.531 382.022 255.26 379.237 255.409C378.657 255.495 378.649 255.931 379.237 256.052C384.371 257.397 387.806 259.295 393.022 260.574H393.03ZM362.865 274.339L373.061 257.88C373.437 257.135 373.841 256.523 373.861 255.825L357.645 261.437C355.39 262.217 359.92 271.586 361.194 273.021C361.669 273.527 361.853 274.319 362.865 274.339ZM392.433 262.782C392.563 262.417 392.524 261.84 392.151 261.688C388.461 260.189 381.088 257.742 377.414 256.852C379.802 262.35 382.28 268.001 385.061 273.288C385.363 273.864 385.896 273.848 386.304 273.374C389.049 270.197 391.041 266.731 392.433 262.778V262.782ZM372.43 278.468L374.324 265.37C374.394 264.88 376.198 255.315 374.704 257.715L365.473 272.527C364.692 273.778 363.029 275.499 364.429 276.562C365.829 277.625 371.975 281.621 372.43 278.468ZM383.755 275.884C385.567 274.535 381.763 270.844 381.175 267.825L376.637 258.821L375.512 264.358C375.206 269.656 373.531 275.166 373.724 279.805C377.606 279.774 380.735 278.135 383.755 275.888V275.884ZM405.845 266.864C403.308 266.044 404.139 270.539 404.802 271.872C405.069 272.413 405.524 272.742 405.967 272.593C407.257 272.162 406.912 268.154 405.849 266.864H405.845Z" fill="black"/>
<path d="M46.519 465.456L40.6753 447.974L39.1058 442.906L36.6881 435.751C36.2542 434.469 35.569 433.441 34.9001 432.221C34.6586 431.78 32.9815 431.402 32.8673 431.953L30.8901 441.5L29.3892 448.577C28.7856 451.432 27.6795 453.892 26.1492 456.326C22.7461 461.736 18.5599 467.446 14.0801 472.001L8.16133 478.018C6.87578 479.323 5.70115 480.598 4.49717 481.979C4.07953 482.458 0.314252 486.755 0.0205991 484.781C-0.220849 483.16 1.72052 480.494 2.68958 479.277C5.1269 476.22 7.51855 473.309 9.66548 470.037L15.7147 460.803L20.4654 453.621C22.1784 451.031 22.968 448.153 23.4215 445.034L23.9697 441.272L24.0153 437.966C24.0349 436.658 25.4118 431.607 23.5487 431.196C22.3317 430.929 19.5355 430.586 20.2239 428.53L21.0592 426.044C21.7509 423.985 21.963 417.74 22.733 413.88L24.1883 406.601C24.2698 406.2 24.2274 405.795 23.8718 405.586C19.5844 403.074 18.7655 401.149 14.8011 397.945C11.124 394.972 14.4553 389.481 16.5565 386.049C17.3135 384.809 15.4863 384.864 13.9071 382.995C13.0555 381.99 14.6739 380.561 15.8257 379.187C17.9824 376.619 19.865 374.022 21.6139 371.164C22.968 368.945 24.1524 368.4 25.7512 366.798C24.0708 365.493 23.8359 361.199 23.663 358.918C23.5227 357.068 24.6973 356.39 24.9485 354.954C25.0497 354.376 26.2895 349.554 26.5342 349.244C28.4756 346.774 25.7609 347.13 30.1984 341.89C31.2164 340.686 30.0156 338.526 32.4399 337.942C34.2834 337.498 36.1171 337.1 37.7518 336.098C40.3294 334.519 41.2561 336.284 42.7276 335.681C44.5515 334.93 46.5451 334.656 48.382 335.612C49.2369 336.059 49.7165 336.904 50.3299 337.589C52.627 340.164 50.0396 341.678 51.3577 343.789C52.5421 345.688 51.2925 346.164 52.8358 348.918C54.7152 352.269 53.6254 352.409 54.9729 354.983C55.4493 355.89 55.5407 356.853 55.1263 357.802C54.2714 359.757 56.5978 362.155 53.7657 363.18C52.7509 363.548 51.932 364.031 51.113 364.746C50.0265 365.695 48.1536 365.336 47.55 366.436C49.0574 369.369 51.0314 376.795 51.5665 380.267C51.9679 382.887 53.7167 386.571 53.3187 386.92C52.6433 387.514 51.7493 387.174 51.0804 387.696C51.2044 393.631 56.1606 397.279 60.9602 399.586L64.7548 401.41C66.8528 402.418 73.1729 405.126 72.1647 407.443C71.6557 408.611 68.8986 408.585 67.4336 407.812C63.5509 405.749 60.1934 405.332 56.6728 403.811L53.0479 402.245C50.0852 400.966 44.819 396.695 44.9724 393.077C43.6771 392.326 45.4488 400.94 45.4683 401.27L45.7261 405.749L47.6218 419.189C48.1602 423.013 49.6774 426.834 49.1292 429.137C48.816 430.449 47.7523 431.232 46.4178 431.252L43.4552 431.297C44.1077 436.058 45.8077 441.066 47.1748 445.892L49.0705 452.577C49.6415 454.591 50.3201 456.46 50.8357 458.493L53.9973 471.016L55.4069 476.311C55.9061 478.184 56.4412 479.907 57.2471 481.669C57.7887 482.863 58.1411 484.605 57.084 485.215C54.5716 486.661 51.9548 479.551 51.1913 477.571L46.532 465.443L46.519 465.456ZM38.7731 337.178C39.3147 337.191 39.5007 336.666 39.1385 336.265C39.0276 336.144 38.8579 336.389 38.6556 336.539C38.2771 336.826 38.2804 337.162 38.7731 337.175V337.178ZM40.5448 337.188C39.9183 336.966 39.5888 337.302 39.7878 338.059C40.163 338.098 40.486 337.854 40.5448 337.188ZM36.8056 338.956C36.4728 338.359 36.3814 338.173 36.3096 337.612C35.8789 337.805 35.6407 338.098 35.4776 338.395C35.9605 338.894 36.2378 339.309 36.8056 338.956ZM46.4113 337.87C46.4113 337.756 46.3167 337.661 46.2025 337.661C46.0883 337.661 45.9937 337.756 45.9937 337.87C45.9937 337.984 46.0883 338.079 46.2025 338.079C46.3167 338.079 46.4113 337.984 46.4113 337.87ZM38.1335 338.346C38.1335 338.186 38.003 338.053 37.8399 338.053C37.6767 338.053 37.5462 338.183 37.5462 338.346C37.5462 338.509 37.6767 338.64 37.8399 338.64C38.003 338.64 38.1335 338.509 38.1335 338.346ZM33.347 340.718C33.5036 339.974 33.4025 339.182 33.148 338.973C32.7238 338.627 32.2311 339.002 31.9929 339.247C31.7254 339.514 31.3142 340.34 31.8037 340.803C32.1724 341.156 33.2295 341.293 33.3503 340.715L33.347 340.718ZM34.9033 340.477C35.3308 339.668 35.2264 339.387 35.0339 339.27C34.874 339.172 34.378 338.999 34.3258 339.26C34.2149 339.824 34.3389 340.376 34.9033 340.477ZM46.4113 339.302C46.4113 339.188 46.3167 339.093 46.2025 339.093C46.0883 339.093 45.9937 339.188 45.9937 339.302C45.9937 339.416 46.0883 339.511 46.2025 339.511C46.3167 339.511 46.4113 339.416 46.4113 339.302ZM50.3234 339.782C50.3234 339.054 50.0134 338.989 49.6382 339.381C49.3283 339.704 49.3283 339.863 49.6382 340.183C50.0134 340.575 50.3234 340.51 50.3234 339.782ZM48.2744 342.206C47.9187 341.736 47.8078 341.492 47.8404 341.051C47.3542 340.833 47.0117 340.927 46.9236 341.296C47.4587 341.58 47.4456 341.89 47.4162 342.33C47.8208 342.487 48.059 342.545 48.2776 342.206H48.2744ZM31.6438 343.175C31.621 342.262 31.0239 342.311 30.5638 342.764C30.3126 343.012 29.8656 343.413 30.1038 343.701C30.4953 344.17 31.2229 344.157 31.6438 343.175ZM37.3374 343.136C36.8186 342.356 36.2803 342.193 35.445 342.523C35.2427 342.643 37.6702 343.916 37.3374 343.136ZM49.3544 343.841C49.3544 343.55 49.1194 343.312 48.8258 343.312C48.5321 343.312 48.2972 343.547 48.2972 343.841C48.2972 344.134 48.5321 344.369 48.8258 344.369C49.1194 344.369 49.3544 344.134 49.3544 343.841ZM50.7052 344.562C50.3397 344.04 49.8699 344.252 49.6774 344.797C49.8731 345.218 50.1146 345.329 50.4245 345.74C50.7965 345.668 50.8292 345.309 50.7019 344.562H50.7052ZM30.5116 344.833C29.8851 344.611 29.5556 344.947 29.7546 345.704C30.1299 345.743 30.4529 345.498 30.5116 344.833ZM34.0256 344.895C33.4514 344.715 33.148 344.745 32.6129 344.862C32.5607 345.143 32.7336 345.293 33.0403 345.27C33.5623 345.342 33.9441 345.361 34.0256 344.895ZM29.6372 347.032C29.3305 346.412 29.1151 346.174 28.7366 345.782C28.2635 346.34 28.1983 346.852 28.4169 347.531C28.8965 347.583 29.3174 347.57 29.6372 347.032ZM47.364 346.467C47.364 346.353 47.2694 346.259 47.1552 346.259C47.041 346.259 46.9464 346.353 46.9464 346.467C46.9464 346.582 47.041 346.676 47.1552 346.676C47.2694 346.676 47.364 346.582 47.364 346.467ZM50.3104 346.709C50.3104 346.418 50.0754 346.18 49.7818 346.18C49.4881 346.18 49.2532 346.415 49.2532 346.709C49.2532 347.002 49.4881 347.237 49.7818 347.237C50.0754 347.237 50.3104 347.002 50.3104 346.709ZM31.572 347.658C31.8135 346.83 31.51 346.526 30.6813 346.768C30.7922 347.211 31.1283 347.547 31.572 347.658ZM45.9317 346.947C45.9317 346.833 45.837 346.738 45.7228 346.738C45.6086 346.738 45.514 346.833 45.514 346.947C45.514 347.061 45.6086 347.156 45.7228 347.156C45.837 347.156 45.9317 347.061 45.9317 346.947ZM36.8545 347.423C36.8545 347.309 36.7599 347.215 36.6457 347.215C36.5315 347.215 36.4369 347.309 36.4369 347.423C36.4369 347.538 36.5315 347.632 36.6457 347.632C36.7599 347.632 36.8545 347.538 36.8545 347.423ZM44.8288 348.582C44.4145 348.141 44.0457 348.053 44.0392 348.582C44.0327 348.996 44.3655 349.254 44.7342 349.489C44.9724 349.642 45.2269 349.003 44.8288 348.582ZM51.2468 348.807C50.8357 348.35 50.1505 348.715 50.3462 348.918C50.6595 349.241 51.1195 348.993 51.4197 349.567C51.7982 349.437 51.622 349.215 51.2468 348.807ZM28.2081 349.551C28.3418 349.107 27.9699 348.99 27.686 349.518C27.3173 349.57 27.0041 349.547 26.8442 349.822C26.7333 350.011 26.9225 350.624 27.1281 350.451L28.2081 349.551ZM36.3781 349.335C36.3781 349.221 36.2835 349.127 36.1693 349.127C36.0551 349.127 35.9605 349.221 35.9605 349.335C35.9605 349.45 36.0551 349.544 36.1693 349.544C36.2835 349.544 36.3781 349.45 36.3781 349.335ZM47.8437 349.335C47.8437 349.221 47.749 349.127 47.6348 349.127C47.5206 349.127 47.426 349.221 47.426 349.335C47.426 349.45 47.5206 349.544 47.6348 349.544C47.749 349.544 47.8437 349.45 47.8437 349.335ZM34.0713 350.053C34.0713 349.893 33.9408 349.76 33.7777 349.76C33.6145 349.76 33.484 349.89 33.484 350.053C33.484 350.216 33.6145 350.347 33.7777 350.347C33.9408 350.347 34.0713 350.216 34.0713 350.053ZM43.5433 350.291C43.5433 350.177 43.4487 350.083 43.3345 350.083C43.2203 350.083 43.1256 350.177 43.1256 350.291C43.1256 350.406 43.2203 350.5 43.3345 350.5C43.4487 350.5 43.5433 350.406 43.5433 350.291ZM48.7997 350.291C48.7997 350.177 48.705 350.083 48.5909 350.083C48.4767 350.083 48.382 350.177 48.382 350.291C48.382 350.406 48.4767 350.5 48.5909 350.5C48.705 350.5 48.7997 350.406 48.7997 350.291ZM36.3781 351.247C36.3781 351.133 36.2835 351.039 36.1693 351.039C36.0551 351.039 35.9605 351.133 35.9605 351.247C35.9605 351.362 36.0551 351.456 36.1693 351.456C36.2835 351.456 36.3781 351.362 36.3781 351.247ZM45.4194 351.469C45.5499 350.941 45.0507 350.957 44.4993 350.97C44.0294 351.133 43.7652 351.456 43.5629 351.831C44.2676 352.125 44.6722 352.083 45.4194 351.469ZM53.1882 351.903C53.0446 351.42 52.7183 351.417 52.6172 351.903C52.5911 352.396 52.6465 352.996 52.963 352.83C53.2795 352.663 53.1033 352.295 53.1882 351.9V351.903ZM27.6958 352.735C27.4837 352.184 27.2651 351.975 26.9225 352.001C26.4592 352.51 26.1982 352.846 26.2765 353.329C26.9388 353.27 27.3271 353.234 27.6958 352.735ZM48.4049 352.442C48.4049 352.282 48.2744 352.148 48.1112 352.148C47.9481 352.148 47.8176 352.278 47.8176 352.442C47.8176 352.605 47.9481 352.735 48.1112 352.735C48.2744 352.735 48.4049 352.605 48.4049 352.442ZM31.6829 352.918C31.6829 352.758 31.5524 352.624 31.3893 352.624C31.2262 352.624 31.0956 352.755 31.0956 352.918C31.0956 353.081 31.2262 353.212 31.3893 353.212C31.5524 353.212 31.6829 353.081 31.6829 352.918ZM29.5328 353.156C29.5328 352.996 29.4022 352.863 29.2391 352.863C29.076 352.863 28.9455 352.993 28.9455 353.156C28.9455 353.319 29.076 353.45 29.2391 353.45C29.4022 353.45 29.5328 353.319 29.5328 353.156ZM36.3781 353.156C36.3781 353.042 36.2835 352.947 36.1693 352.947C36.0551 352.947 35.9605 353.042 35.9605 353.156C35.9605 353.27 36.0551 353.365 36.1693 353.365C36.2835 353.365 36.3781 353.27 36.3781 353.156ZM33.0338 353.636C33.0338 353.522 32.9391 353.427 32.8249 353.427C32.7107 353.427 32.6161 353.522 32.6161 353.636C32.6161 353.75 32.7107 353.845 32.8249 353.845C32.9391 353.845 33.0338 353.75 33.0338 353.636ZM44.9757 353.636C44.9757 353.522 44.881 353.427 44.7668 353.427C44.6526 353.427 44.558 353.522 44.558 353.636C44.558 353.75 44.6526 353.845 44.7668 353.845C44.881 353.845 44.9757 353.75 44.9757 353.636ZM50.2321 353.636C50.2321 353.522 50.1374 353.427 50.0232 353.427C49.909 353.427 49.8144 353.522 49.8144 353.636C49.8144 353.75 49.909 353.845 50.0232 353.845C50.1374 353.845 50.2321 353.75 50.2321 353.636ZM27.301 354.589C27.301 354.474 27.2064 354.38 27.0922 354.38C26.978 354.38 26.8834 354.474 26.8834 354.589C26.8834 354.703 26.978 354.797 27.0922 354.797C27.2064 354.797 27.301 354.703 27.301 354.589ZM49.7557 354.589C49.7557 354.474 49.661 354.38 49.5469 354.38C49.4327 354.38 49.338 354.474 49.338 354.589C49.338 354.703 49.4327 354.797 49.5469 354.797C49.661 354.797 49.7557 354.703 49.7557 354.589ZM45.8827 355.672C45.5793 354.866 45.1682 354.703 44.5286 354.872C44.0392 354.742 43.6412 354.729 43.5629 355.235C44.1143 355.3 44.4177 355.241 44.62 355.757C45.0442 355.822 45.4683 355.897 45.8827 355.672ZM54.1376 355.306C54.1376 355.146 54.0071 355.013 53.844 355.013C53.6809 355.013 53.5503 355.143 53.5503 355.306C53.5503 355.47 53.6809 355.6 53.844 355.6C54.0071 355.6 54.1376 355.47 54.1376 355.306ZM40.9983 355.545C40.9983 355.385 40.8678 355.251 40.7046 355.251C40.5415 355.251 40.411 355.381 40.411 355.545C40.411 355.708 40.5415 355.838 40.7046 355.838C40.8678 355.838 40.9983 355.708 40.9983 355.545ZM31.6895 356.501C31.6895 355.773 31.3795 355.708 31.0043 356.099C30.6943 356.422 30.6943 356.582 31.0043 356.902C31.3795 357.293 31.6895 357.228 31.6895 356.501ZM33.5101 356.024C33.5101 355.91 33.4155 355.815 33.3013 355.815C33.1871 355.815 33.0925 355.91 33.0925 356.024C33.0925 356.138 33.1871 356.233 33.3013 356.233C33.4155 356.233 33.5101 356.138 33.5101 356.024ZM35.8985 356.024C35.8985 355.91 35.8039 355.815 35.6897 355.815C35.5755 355.815 35.4809 355.91 35.4809 356.024C35.4809 356.138 35.5755 356.233 35.6897 356.233C35.8039 356.233 35.8985 356.138 35.8985 356.024ZM49.2761 356.024C49.2761 355.91 49.1814 355.815 49.0672 355.815C48.953 355.815 48.8584 355.91 48.8584 356.024C48.8584 356.138 48.953 356.233 49.0672 356.233C49.1814 356.233 49.2761 356.138 49.2761 356.024ZM53.2534 357.496C53.1751 356.739 53.074 356.452 52.764 356.465C52.2974 357.036 51.87 357.385 51.8406 358.076C52.454 358.233 52.9304 358.178 53.2567 357.496H53.2534ZM54.5324 356.501C54.5324 356.386 54.4378 356.292 54.3236 356.292C54.2094 356.292 54.1148 356.386 54.1148 356.501C54.1148 356.615 54.2094 356.709 54.3236 356.709C54.4378 356.709 54.5324 356.615 54.5324 356.501ZM27.2455 356.908C27.0856 356.605 26.7104 356.768 26.3124 356.683C25.8295 356.827 25.8262 357.153 26.3156 357.254C26.8083 357.28 27.4087 357.225 27.2423 356.908H27.2455ZM45.5042 358.08C45.5564 357.049 45.0899 357 44.5221 357.362C44.7407 357.698 44.9822 358.214 45.5042 358.08ZM24.9126 357.933C24.9126 357.819 24.818 357.724 24.7038 357.724C24.5896 357.724 24.495 357.819 24.495 357.933C24.495 358.047 24.5896 358.142 24.7038 358.142C24.818 358.142 24.9126 358.047 24.9126 357.933ZM48.32 357.933C48.32 357.819 48.2254 357.724 48.1112 357.724C47.997 357.724 47.9024 357.819 47.9024 357.933C47.9024 358.047 47.997 358.142 48.1112 358.142C48.2254 358.142 48.32 358.047 48.32 357.933ZM43.8174 358.249C43.0408 358.05 42.6982 358.096 42.6069 358.53C42.9951 358.716 43.2105 358.644 43.5857 358.7C44.0001 358.602 44.1665 358.393 43.8174 358.249ZM39.5659 358.889C39.5659 358.729 39.4354 358.595 39.2723 358.595C39.1091 358.595 38.9786 358.726 38.9786 358.889C38.9786 359.052 39.1091 359.183 39.2723 359.183C39.4354 359.183 39.5659 359.052 39.5659 358.889ZM35.4221 359.369C35.4221 359.254 35.3275 359.16 35.2133 359.16C35.0991 359.16 35.0045 359.254 35.0045 359.369C35.0045 359.483 35.0991 359.577 35.2133 359.577C35.3275 359.577 35.4221 359.483 35.4221 359.369ZM49.7002 359.878C49.4686 359.336 48.8323 359.701 48.2907 359.561C47.8078 359.679 47.811 359.979 48.2939 360.171C48.8551 359.959 49.1912 360.015 49.4294 360.537C49.6872 360.586 49.9025 360.351 49.7002 359.878ZM52.1506 361.767C52.9239 361.14 52.9076 360.664 52.6106 360.325C52.4508 360.142 52.1441 360.174 51.8243 360.269C51.2468 360.439 50.7769 360.749 50.8846 361.594C50.9205 361.868 51.746 362.096 52.1473 361.767H52.1506ZM25.4673 361.039C25.4673 360.749 25.2324 360.511 24.9387 360.511C24.6451 360.511 24.4101 360.745 24.4101 361.039C24.4101 361.333 24.6451 361.568 24.9387 361.568C25.2324 361.568 25.4673 361.333 25.4673 361.039ZM28.257 360.801C28.257 360.687 28.1624 360.592 28.0482 360.592C27.934 360.592 27.8394 360.687 27.8394 360.801C27.8394 360.915 27.934 361.01 28.0482 361.01C28.1624 361.01 28.257 360.915 28.257 360.801ZM40.1173 360.592C39.1907 360.537 38.8873 360.478 38.3032 360.67C38.499 361.049 38.7894 361.447 39.2788 361.535C40.0814 361.682 40.5252 361.254 40.1206 360.592H40.1173ZM54.1376 361.519C54.1376 361.359 54.0071 361.225 53.844 361.225C53.6809 361.225 53.5503 361.356 53.5503 361.519C53.5503 361.682 53.6809 361.812 53.844 361.812C54.0071 361.812 54.1376 361.682 54.1376 361.519ZM43.5433 362.233C43.5433 362.119 43.4487 362.024 43.3345 362.024C43.2203 362.024 43.1256 362.119 43.1256 362.233C43.1256 362.348 43.2203 362.442 43.3345 362.442C43.4487 362.442 43.5433 362.348 43.5433 362.233ZM49.1749 362.387C49.6643 361.692 47.426 362.054 46.9334 362.083C46.7408 362.853 47.1063 363.023 47.8632 362.974C48.3298 362.945 48.7149 363.039 49.1749 362.383V362.387ZM39.0863 363.189C39.0863 363.029 38.9558 362.896 38.7926 362.896C38.6295 362.896 38.499 363.026 38.499 363.189C38.499 363.352 38.6295 363.483 38.7926 363.483C38.9558 363.483 39.0863 363.352 39.0863 363.189ZM35.0273 363.907C35.0273 363.747 34.8968 363.613 34.7337 363.613C34.5705 363.613 34.44 363.744 34.44 363.907C34.44 364.07 34.5705 364.201 34.7337 364.201C34.8968 364.201 35.0273 364.07 35.0273 363.907ZM43.5139 364.377C43.7554 363.548 43.4519 363.245 42.6232 363.486C42.7341 363.93 43.0702 364.266 43.5139 364.377ZM25.9502 364.384C25.9502 364.224 25.8197 364.09 25.6565 364.09C25.4934 364.09 25.3629 364.22 25.3629 364.384C25.3629 364.547 25.4934 364.677 25.6565 364.677C25.8197 364.677 25.9502 364.547 25.9502 364.384ZM28.0025 364.615C27.7023 364.129 27.314 364.168 26.9714 364.507C26.668 364.814 26.606 365.131 26.73 365.467C27.2912 365.62 27.81 365.346 27.9992 364.615H28.0025ZM30.4888 364.145C30.4888 363.985 30.3582 363.852 30.1951 363.852C30.032 363.852 29.9015 363.982 29.9015 364.145C29.9015 364.308 30.032 364.439 30.1951 364.439C30.3582 364.439 30.4888 364.308 30.4888 364.145ZM38.1792 364.925C37.7485 364.348 37.5136 364.387 37.2134 364.7C36.8839 365.043 36.8349 365.297 37.3146 365.356C37.8431 365.421 38.4827 365.333 38.1792 364.925ZM46.9105 365.757C46.7996 365.313 46.4635 364.977 46.0197 364.866C45.7783 365.695 46.0818 365.999 46.9105 365.757ZM28.4985 366.791C29.0401 366.364 28.8182 365.917 28.4397 365.816C28.2407 366.132 28.12 366.253 27.8394 366.416C27.7872 366.671 27.9895 366.818 28.4985 366.791ZM32.2866 366.472C32.6716 365.94 32.4628 365.731 31.9309 366.116C31.5459 366.648 31.7547 366.857 32.2866 366.472ZM44.0229 399.358L43.1974 391.948C43.1387 389.057 43.0506 386.297 42.7994 383.435C42.7602 383.001 43.1224 382.626 43.3606 382.662C44.8582 382.88 43.2366 387.961 45.7816 387.553C47.8894 387.217 50.0689 387.112 51.994 386.208C52.4442 385.996 50.9792 382.316 50.7574 381.079C50.3691 378.923 48.1014 368.1 46.6625 367.509C44.1567 366.478 43.0636 365.995 40.6328 366.824C37.308 367.96 35.2688 364.178 33.9702 366.661C33.4905 367.575 32.6422 368.159 31.6112 368.054L28.7171 367.764C25.4118 367.434 23.5553 369.852 21.8195 372.687C19.9988 375.666 17.9269 378.237 15.6886 380.946C15.4276 381.262 14.6608 382.039 14.8566 382.352C15.5679 383.484 23.0952 389.063 24.1361 386.597C24.6581 385.357 27.8785 379.389 28.5474 379.634C28.89 379.761 29.1086 380.156 28.9585 380.636C27.1901 386.29 26.3156 391.935 26.4037 397.844C26.4298 399.54 30.0581 399.589 31.6144 399.622L38.7894 399.769C40.6394 399.808 42.3817 399.641 44.0262 399.354L44.0229 399.358ZM31.1217 367.01C31.1217 366.896 31.0271 366.801 30.9129 366.801C30.7987 366.801 30.7041 366.896 30.7041 367.01C30.7041 367.124 30.7987 367.219 30.9129 367.219C31.0271 367.219 31.1217 367.124 31.1217 367.01ZM25.0757 399.322C25.8099 394.088 25.2846 394 26.0383 388.479L26.593 384.424C26.9845 383.993 26.3776 383.843 26.4527 384.44C25.1345 387.158 20.1065 395.096 22.5438 397.351C23.3236 398.072 23.9109 398.77 25.0725 399.322H25.0757ZM21.5421 397.805C19.8683 395.831 21.3039 392.587 22.2763 390.444C22.5862 389.693 22.9517 389.083 23.0234 388.339C20.4165 388.042 18.0379 385.452 17.2581 386.766C15.7017 389.393 12.5465 394.731 15.2938 396.972C17.3331 398.637 18.9319 400.624 20.9809 402.245L24.2307 404.82C24.6907 403.746 24.8343 402.81 24.8539 401.658C24.8832 400.072 23.154 399.707 21.5421 397.805ZM67.5739 406.732C68.6343 407.299 69.9231 407.479 70.9281 407.019C72.1941 406.438 67.4108 403.929 67.2411 403.834C61.3941 400.464 57.4951 400.235 52.516 394.64C50.5322 392.411 50.6464 390.264 49.7491 387.99C47.7001 388.711 44.5286 387.889 44.9822 389.634L45.9153 393.233C47.178 398.101 51.9613 400.803 56.3107 402.731C59.9552 404.346 63.2931 404.435 67.5707 406.735L67.5739 406.732ZM56.8001 484.015C55.4917 479.652 55.3286 479.975 54.1703 475.593L51.8765 466.891L47.7491 451.409L46.1764 446.267C44.7538 441.618 43.5335 437.112 42.4894 432.384C42.0881 430.56 37.8986 431.738 36.0192 431.806C36.4434 433.372 37.2721 434.583 37.7779 436.1L41.4714 447.213L47.8404 466.16C48.2548 467.387 48.5289 468.578 49.0215 469.759L52.9696 479.238C53.658 480.892 54.3987 482.419 55.5015 483.793C55.8441 484.188 56.327 484.458 56.8001 484.011V484.015ZM1.7923 483.003C3.27036 482.024 4.11216 480.69 5.2933 479.489L12.6607 471.981C18.2043 466.33 22.981 460.16 26.6941 453.135C28.2896 450.117 28.9063 446.802 29.523 443.497L31.0891 435.089C31.2979 433.96 31.634 432.991 31.5557 431.803L26.3091 431.637C24.7201 431.588 25.7512 433.105 25.2846 435.917C24.6483 439.741 25.2128 439.308 24.5733 443.784C23.2877 452.763 21.8032 453.445 16.9122 460.888L10.0733 471.29C7.98187 474.474 5.62937 477.287 3.25404 480.249C2.53296 481.147 2.03376 482.037 1.79884 483L1.7923 483.003Z" fill="black"/>
<path d="M561.999 371.776C563.106 371.966 566.899 371.968 570.261 371.427C576.897 370.36 586.586 365.436 600.696 357.552C610.182 352.251 620.002 348.185 626.471 345.779C636.752 341.954 646.575 340.052 655.384 338.683C669.685 336.461 680.464 334.965 691.319 331.074C700.111 327.922 715.537 321.947 724.009 318.78C735.404 314.52 739.967 312.611 745.517 310.096C761.984 302.633 776.58 292.405 783.29 288.141C788.565 284.788 797.974 281.558 809.09 277.462C825.363 271.465 837.427 270.925 845.282 268.931C851.782 267.281 861.331 262.667 867.033 259.777C872.859 256.824 878.303 254.283 885.755 249.94C894.261 244.982 898.002 241.981 902.602 238.65C908.664 234.26 920.605 230.472 929.031 227.935C933.833 226.49 937.794 225.185 942.619 223.793C952.479 220.95 965.072 215.762 976.67 210.218C992.255 202.504 996.338 200.68 998.318 199.739C999.249 199.29 1000.03 198.901 1000.97 198.453" stroke="#B6A3C0" stroke-width="5" stroke-linecap="round"/>
<path d="M546.13 206.302C545.945 206.687 545.727 206.937 545.407 207.025C545.001 207.137 544.59 206.814 544.569 206.393C544.547 206.011 544.692 205.648 544.972 205.383C545.251 205.118 545.68 205.165 545.934 205.438C545.967 205.474 545.999 205.51 546.032 205.543C546.214 205.75 546.25 206.048 546.134 206.298L546.13 206.302Z" fill="black"/>
<path d="M552.56 205.656C552.636 207.145 551.187 207.145 551.267 205.656C551.31 204.802 552.516 204.802 552.56 205.656Z" fill="black"/>
<path d="M564.746 351.29C564.361 350.023 561.826 339.045 563.871 337.926C563.874 337.926 563.871 337.919 563.871 337.919C553.786 335.798 557.348 321.988 554.556 319.918C552.675 318.523 552.627 316.627 551.919 314.009C551.836 313.41 551.393 313.512 551.298 314.1L549.613 320.114C549.094 321.973 546.142 320.815 546.014 321.595C543.963 334.237 541.061 344.013 536.602 356.033C535.16 359.922 533.889 363.579 532.048 367.262C531.114 369.132 528.202 376.409 524.977 374.354C524.643 374.143 524.429 373.501 524.607 372.822L526.942 363.91C528.195 359.123 529.585 354.566 530.697 349.736C531.329 346.987 532.029 344.387 532.821 341.692C534.234 336.895 534.898 332.127 535.763 327.188L536.997 320.11C537.226 318.795 533.863 318.861 534.699 316.598C535.879 313.403 536.572 310.221 537.433 306.899L540.429 295.296C541.217 292.242 539.285 292.176 539.46 288.814L539.768 282.854C540.444 269.788 541.112 260.354 543.607 247.425C543.854 246.151 544.021 245.014 544.758 243.783C544.467 243.187 544.78 243.191 544.758 243.783C544.072 246.074 543.599 247.741 542.641 249.815L539.576 257.59C537.655 261.748 535.948 266.106 533.667 270.075L529.182 277.211C528.518 278.373 523.397 285.28 522.228 284.565C521.059 283.849 524.737 275.479 525.344 274.15C527.781 268.844 529.974 263.673 531.815 258.138L534.506 250.055L542.042 228.901C544.25 222.702 548.121 218.678 548.077 218.798C548.571 217.534 547.801 216.107 546.646 215.435C540.662 211.96 542.256 206.215 541.798 200.354C541.675 198.759 542.437 197.296 543.596 196.148C547.409 192.368 553.466 191.929 557.781 195.175C560.537 197.249 563.101 205.387 558.507 210.467C556.793 212.363 553.59 214.498 554.371 217.818C554.868 219.927 555.449 217.563 557.675 220.022C559.883 222.466 561.554 225.055 562.545 228.211L564.811 235.445L570.193 252.597L571.562 256.82C573.676 263.342 574.685 269.941 575.807 276.721L576.93 283.49C577.166 284.913 577.26 289.344 575.481 289.358C574.634 289.366 574.003 288.36 573.81 287.593C573.098 284.772 572.248 282.201 571.377 279.441L568 268.739C566.761 264.817 565.694 261.04 564.197 257.216C563.838 256.301 562.708 252.179 562.6 253.537C562.607 259.137 562.636 260.666 562.865 266.146C563.133 272.555 562.966 278.762 562.912 285.153C562.857 291.784 565.766 293.041 563.435 294.642C563.061 294.9 562.774 295.249 562.923 295.71L564.477 300.536C565.846 304.789 569.514 312.001 570.113 315.16C570.611 317.779 568.922 318.298 569.583 320.059C571.188 324.348 572.564 331.553 570.124 335.62C569.721 336.292 569.772 336.891 570.073 337.581C570.977 339.655 570.458 343.497 571.82 348.207C573.378 353.604 578.193 351.566 578.429 355.121C578.647 358.393 578.814 365.246 577.173 367.868C574.925 371.463 574.18 374.438 571.344 375.178C568.9 375.817 562.24 376.849 560.787 375.276C560.41 374.87 560.137 374.111 560.599 373.461C561.971 371.521 566.166 373.337 570.97 365.25C572.343 362.94 574.355 357.998 572.085 355.782C570.716 354.446 565.966 355.329 564.739 351.272L564.746 351.29ZM543.418 208.456C543.865 212.192 547.028 215.827 551.306 215.083C552.893 214.807 554.116 213.939 554.821 212.526C555.413 211.168 556.437 210.326 557.712 209.905C557.719 209.905 557.722 209.894 557.715 209.886C554.893 206.567 556.513 203.669 555.318 201.479C553.216 197.612 548.651 198.207 544.925 198.596C543.712 199.104 543.207 200.296 543.57 201.429C545.324 201.835 547.954 202.351 548.346 204.09C548.763 205.939 548.898 207.686 549.032 209.487C549.032 209.487 549.032 209.487 549.032 209.491C546.352 212.207 548.658 204.646 546.708 203.509C545.902 203.041 545.07 202.856 544.086 202.79C542.652 202.696 543.269 207.243 543.411 208.448L543.418 208.456ZM553.419 220.436C553.325 218.747 553.245 217.698 552.874 216.332C552.874 216.332 552.874 216.329 552.871 216.329C551.636 216.172 550.648 216.405 549.41 216.655C549.41 216.655 549.406 216.655 549.406 216.663C549.384 217.966 549.41 219.183 549.82 220.596C549.82 220.596 549.82 220.596 549.82 220.599C551.03 221.075 552.206 221.108 553.415 220.44C553.415 220.44 553.415 220.44 553.415 220.436H553.419ZM561.59 284.863L561.703 276.39L561.572 265.187L561.463 257.314C561.419 254.184 561.626 249.448 560.602 247.498C559.513 245.417 555.939 248.195 554.24 242.022C552.809 236.829 553.259 231.494 555.3 226.54C556.335 224.031 558.282 223.225 557.973 222.499C557.603 221.623 556.967 220.955 556.172 220.392C555.14 219.662 552.646 224.99 547.936 220.607C547.932 220.607 547.925 220.607 547.925 220.61C547.808 222.39 547.783 223.682 547.525 225.317C546.309 233.063 547.02 238.684 545.274 246.129C543.269 254.685 541.638 269.185 541.221 278.101C541.094 280.792 541.126 283.319 540.807 285.981C540.614 287.568 540.273 291.468 542.027 291.846C544.162 292.304 549.483 292.797 552.558 293.19C555.732 293.593 558.819 293.556 562.044 293.451C564.092 293.386 561.51 290.746 561.59 284.863ZM537.709 257.891L541.076 249.593C541.914 247.77 542.953 244.803 543.694 242.94C544.82 240.108 545.125 238.234 545.375 235.02L546.258 223.762C546.258 223.762 546.25 223.755 546.25 223.759C544.504 225.731 543.309 229.184 542.299 231.984L535.189 251.732C534.365 254.024 533.696 256.195 532.966 258.498C531.285 263.803 529.153 268.731 526.913 273.801C526.444 274.861 524.381 278.685 524.705 279.808C525.028 280.93 527.054 277.712 527.254 277.523C530.108 274.821 535.846 261.955 537.716 257.899L537.709 257.891ZM569.053 267.769L572.804 279.706C573.647 282.386 574.598 284.786 575.008 287.648C575.008 287.648 575.008 287.652 575.012 287.652C576.378 287.942 575.491 282.321 575.368 281.591L573.901 272.944C572.463 264.468 571.253 259.892 568.671 251.787L563.925 236.894L560.907 227.481C560.631 226.624 560.275 225.861 559.607 225.251C558.903 224.601 557.846 224.721 557.312 225.52C553.049 231.904 554.287 245.029 558.59 245.214C559.012 245.232 559.248 244.901 559.062 244.553C553.739 234.577 555.42 235.441 556.063 235.703C556.219 235.768 556.342 235.892 556.404 236.048C557.41 238.514 558.481 240.889 559.854 243.296C563.159 249.092 566.932 261.022 569.053 267.769ZM552.163 310.81L554.211 317.463C555.006 320.048 565.668 317.844 568.178 317.354C569.721 317.052 568.297 313.127 567.84 312.132C565.955 308.032 562.796 300.467 561.895 296.262C561.695 295.329 560.86 294.729 559.872 294.751C556.175 294.831 552.744 294.29 549.09 293.836C546.973 293.571 544.969 293.778 542.866 293.284C542.408 293.175 541.947 293.408 541.875 293.854C541.435 296.527 540.72 298.964 540.059 301.586L537.451 311.932C536.769 314.648 535.367 317.357 536.373 317.771C541.116 319.732 542.339 319.475 547.195 319.979C547.87 320.048 548.259 319.765 548.487 319.133C549.181 317.223 550.961 311.198 550.405 309.379L547.794 300.849L547.449 299.701C547.449 299.701 547.449 299.697 547.449 299.694C548.382 299.363 548.8 299.832 549.021 300.587C550.281 303.899 551.048 307.193 552.159 310.802L552.163 310.81ZM569.434 334.204C571.017 329.705 569.412 322.855 567.807 319.032C567.735 318.861 567.045 318.919 567.059 319.115C567.557 325.151 569.187 328.673 568.704 334.415C568.904 335.01 569.307 334.923 569.434 334.204ZM533.046 361.626L537.702 348.85C540.248 341.863 543.65 329.015 544.576 321.922C544.616 321.614 544.42 321.323 544.119 321.247L538.475 319.856C538.475 319.856 538.468 319.856 538.468 319.859L537.157 327.333C536.282 332.33 535.621 337.146 534.136 342.03C533.232 345.008 532.491 348.033 531.793 351.065C530.911 354.885 529.832 358.51 528.823 362.308L526.215 372.106C526.045 372.753 526.303 373.265 526.964 372.814C529.015 371.409 532.157 364.066 533.05 361.622L533.046 361.626ZM565.69 325.546L564.728 320.847C564.601 320.023 564.059 319.558 563.199 319.613L557.574 319.965C557.276 319.983 556.691 320.085 556.717 320.35C557.12 324.181 557.657 331.306 559.934 334.215C561.151 335.769 563.148 336.917 565.149 336.259C566.972 335.66 566.024 327.199 565.683 325.543L565.69 325.546ZM568.501 342.389C569.459 342.008 569.786 341.031 569.169 340.069C569.165 340.062 569.154 340.058 569.147 340.065C567.324 341.289 564.546 340.926 564.325 341.452C563.911 342.444 566.511 343.185 568.501 342.389ZM568.196 373.831C569.416 373.7 570.168 373.043 570.691 372.23C572.325 369.677 574.729 367.16 575.234 365.007C575.931 362.032 577.409 355.452 574.42 354.065L571.766 352.834C568.773 351.443 569.194 348.018 568.065 344.507C567.814 343.729 566.71 343.846 565.97 343.798C563.729 343.664 565.116 348.912 565.606 350.974C566.438 354.468 571.511 353.091 573.135 355.223C576.577 359.744 570.607 369.553 565.752 372.375C563.842 373.486 562.451 372.945 561.517 374.438C561.572 374.913 561.997 374.703 562.451 374.448L568.192 373.835L568.196 373.831Z" fill="black"/>
<path d="M694.091 152.795C694.588 152.031 694.585 151.38 694.655 150.632C694.655 150.603 694.658 150.574 694.655 150.549C694.543 146.69 693.957 143.073 693.119 139.344L692.319 135.794C692.214 135.323 692.644 134.899 693.113 135.023C693.154 135.036 693.199 135.045 693.24 135.058C693.874 135.211 694.394 135.38 695.025 135.472C696.261 135.651 697.188 134.771 697.064 133.535C696.965 132.56 696.694 131.69 696.551 130.705L695.566 123.86C695.566 123.86 695.563 123.838 695.56 123.825L694.534 118.675C694.269 117.347 694.394 116.065 694.295 114.721L693.744 107.375L693.31 101.241L692.794 94.7018C692.542 92.9683 692.201 91.0849 692.109 89.4087C692.087 89.0231 692.042 88.6407 691.962 88.2615C691.417 85.7058 692.839 90.3424 693.097 90.7312C693.106 90.7439 693.116 90.7567 693.125 90.7726L696.43 96.2506C696.672 96.6489 696.946 96.9771 697.341 97.2384C697.555 97.3786 697.842 97.3882 698.049 97.2384C698.801 96.6808 698.498 95.3073 698.25 94.5871L695.375 86.2603C694.218 82.9079 693.227 79.616 692.357 76.1584C690.955 70.5817 692.214 65.9578 691.197 60.4895C690.732 57.9815 690.48 55.5724 690.41 53.0421C690.369 51.5826 692.396 51.2544 691.287 46.8759C690.436 43.5203 689.493 40.34 688.524 37.0226L686.417 29.8079C685.509 26.6945 683.823 24.2312 685.825 23.4696C692.268 21.0158 688.275 14.4544 690.627 10.9682C692.686 7.91853 686.64 1.63436 683.785 0.305507C683.741 0.286387 683.696 0.270465 683.648 0.257718C676.096 -1.53958 671.169 6.41123 670.484 13.3072L669.856 19.6233L668.285 30.6365C668.282 30.6652 668.279 30.6938 668.279 30.7225C668.25 36.3216 667.96 41.0697 666.175 46.331C665.458 48.4406 667.386 49.4476 668.852 50.2251C669.464 50.5502 669.531 51.0919 669.394 51.7515L667.536 60.7157C667.141 62.6245 667.106 64.5079 666.634 66.3976C666.163 68.2873 665.921 69.9922 665.592 71.8628C664.05 80.6294 664.365 83.1756 663.868 91.7191C663.703 94.5521 663.645 97.2512 663.642 100.1C663.642 100.148 663.636 100.199 663.623 100.247C663.202 101.917 663.32 103.554 663.065 105.243L662.198 110.941C661.724 114.074 660.873 117.057 660.86 120.25L660.825 127.706C660.809 130.849 667.469 131.393 667.919 131.948C668.368 132.502 663.502 139.889 662.575 141.173C661.453 142.729 658.18 147.381 659.19 149.255C659.235 149.338 659.302 149.411 659.385 149.459C662.457 151.263 672.89 136.174 674.222 134.089C674.773 133.226 675.605 132.831 676.682 132.904L684.556 133.458C685.273 133.509 685.857 133.831 686.115 134.513C688.208 140.049 689.126 143.853 691.137 149.121C691.293 149.532 693.007 153.965 694.085 152.808L694.091 152.795ZM688.734 40.7861C689.54 43.4693 690.745 47.9402 690.551 50.1964C690.42 51.7005 686.803 50.9262 685.589 50.6521C679.098 49.1799 676.676 53.807 668.075 48.5712C666.603 47.6758 667.02 46.0027 667.66 44.4827C669.49 40.1297 668.849 33.9793 669.305 30.6779L670.43 22.5264C670.701 20.5538 671.061 18.7119 671.179 16.6979C671.437 12.2588 672.109 8.0205 674.926 4.60436C677.195 1.85424 681.398 -0.596314 684.722 2.11238C686.892 3.88099 689.477 6.46221 689.996 9.25694C690.42 11.545 683.466 10.2034 682.514 15.0663C681.768 18.8776 683.043 20.4741 683.342 24.2567C681.261 23.2242 679.123 18.1988 677.832 17.3002C677.689 17.1982 678.731 19.3333 678.846 19.6105C680.869 24.4288 684.601 26.5926 685.809 30.8054L687.386 36.3024L688.734 40.7861ZM684.238 22.2491C683.177 19.2664 682.571 15.8693 684.263 13.6387C684.301 13.5877 684.349 13.5399 684.4 13.5016C685.48 12.6795 686.66 12.1855 688.078 11.9306C688.342 11.8828 688.61 12.0071 688.744 12.2365C688.928 12.5552 688.944 12.9535 688.935 13.3742L688.811 19.0114C688.785 20.1523 688.189 21.0095 687.268 21.5448C686.513 21.9655 685.815 22.3543 685.082 22.6443C684.741 22.7781 684.359 22.5964 684.234 22.2523L684.238 22.2491ZM661.727 127.719L661.81 120.702C661.829 119.096 663.597 108.943 663.973 105.221L664.487 100.167C664.487 100.167 664.487 100.145 664.487 100.132L664.789 93.835L665.111 85.2278C665.248 81.5471 665.433 78.9755 666.019 75.502L667.03 69.5014C667.323 67.7615 667.571 66.1108 667.919 64.374L670.503 51.4552C670.567 51.1333 671.124 51.2353 671.37 51.3213C676.985 53.3098 678.989 50.8656 684.289 51.5285L688.438 52.0479C689.171 52.1403 689.496 52.7553 689.464 53.4469C689.305 56.8821 690.637 61.0471 690.665 63.7781L690.758 72.6499V81.5376C690.758 86.4387 691.739 91.0913 692.026 95.9701L692.488 103.895L692.969 110.441C693.285 114.759 693.489 118.886 694.362 123.095C694.865 125.514 695.229 127.837 695.563 130.294C695.678 131.139 696.583 134.857 694.993 134.44C682.909 131.253 678.642 132.821 668.017 130.766C666.45 130.463 661.701 129.771 661.724 127.726L661.727 127.719ZM696.949 95.626C696.927 95.5622 696.347 94.6572 696.312 94.6031C693.122 89.4661 691.867 85.7185 691.331 79.7275C691.274 79.0838 691.274 79.8646 691.312 78.8384C691.341 78.0641 690.952 72.7168 692.179 78.7747C692.179 78.7875 692.185 78.8002 692.188 78.813L693.521 83.7906C694.897 88.0894 696.975 91.2188 697.845 95.7407C698.093 96.7286 697.157 96.241 696.949 95.6228V95.626Z" fill="#B6A3C0"/>
<path d="M672.785 58.0344C672.89 56.167 674.117 53.3213 672.743 53.9746C672.45 54.1148 671.758 57.8273 671.711 58.7642L671.293 67.1739L670.78 74.1368L670.391 78.4611L668.83 89.9332C668.741 90.5865 668.167 98.3716 669.7 98.3876C670.598 98.3971 671.175 97.4698 671.478 96.7623C673.772 91.4246 674.744 83.0117 676.446 77.0462L678.409 70.1566C680.484 62.8878 680.031 61.7915 681.529 55.5934C682.593 51.1798 681.162 52.9198 681.226 52.6808C679.722 58.3212 679.254 63.882 678.189 67.6073L676.934 72.0049L674.824 79.1813L673.208 87.3775C672.676 90.0735 671.523 95.1021 670.012 97.3933C669.56 96.568 669.614 90.7905 669.792 89.5094L670.933 81.3674L671.523 76.8041L672.354 65.6219L672.781 58.0312L672.785 58.0344Z" fill="#B6A3C0"/>
<path d="M685.142 16.9056C685.642 17.1605 686.002 16.6475 686.085 16.3862C686.222 15.9464 686.114 15.0924 685.438 15.0414C684.973 15.0063 684.727 15.376 684.645 15.6214C684.546 15.9082 684.527 16.5933 685.145 16.9056H685.142Z" fill="#B6A3C0"/>
<path d="M410.905 157.73C411.479 158.069 413.583 158.871 415.562 159.282C419.469 160.092 425.884 159.407 435.377 158.014C441.759 157.078 448.065 156.896 452.162 156.928C458.674 156.979 464.524 157.998 469.7 159.1C478.103 160.888 484.399 162.335 491.242 162.47C496.785 162.579 506.605 162.523 511.974 162.556C519.194 162.6 522.129 162.505 525.739 162.282C536.451 161.621 546.709 159.03 551.331 158.083C554.966 157.337 560.868 157.533 567.9 157.609C578.193 157.72 585 159.969 589.778 160.522C593.733 160.98 600.005 160.438 603.779 160.039C607.634 159.632 611.191 159.372 616.242 158.537C622.009 157.584 624.718 156.709 627.973 155.833C632.263 154.679 639.688 155.1 644.898 155.472C647.867 155.685 650.34 155.798 653.31 156.045C659.381 156.551 667.463 156.333 675.068 155.708C685.343 154.721 687.993 154.572 689.29 154.468C689.902 154.416 690.418 154.365 691.033 154.315" stroke="url(#paint0_linear_609_431)" stroke-width="2.96799" stroke-linecap="round"/>
<defs>
<linearGradient id="paint0_linear_609_431" x1="410.573" y1="147.244" x2="690.901" y2="150.762" gradientUnits="userSpaceOnUse">
<stop stop-color="#E6E3DA"/>
<stop offset="1" stop-color="#B6A3C0"/>
</linearGradient>
</defs>
</svg>
