<svg width="164" height="346" viewBox="0 0 164 346" fill="none" xmlns="http://www.w3.org/2000/svg">
<path d="M108.607 345.164C102.269 347.993 79.9649 312.737 76.0647 306.887C66.667 292.8 61.2465 285.391 54.4212 269.354C50.9187 261.123 46.9094 253.496 42.9194 245.49C42.5281 244.708 41.861 245.561 41.6108 246.094L32.9508 264.735C27.5752 276.307 22.2124 287.463 17.8632 299.484L12.3785 314.642C9.86393 321.602 8.20891 328.524 7.04141 335.849C6.79765 337.357 5.39282 338.075 4.06496 337.543C0.44059 336.093 -0.342031 330.32 0.119835 327.003C3.95589 299.593 8.02287 279.714 18.1198 253.952L25.8047 234.348L31.5075 221.21C32.2837 219.427 32.5403 217.734 31.8539 215.899L26.7285 202.146C25.7149 199.432 23.5659 199.432 23.5724 195.346C23.598 184.864 24.3165 174.87 25.4134 164.478C26.35 155.568 27.9858 147.023 28.0114 138.03L28.0756 114.5C28.0948 108.111 29.288 100.74 28.3963 96.3463C26.7798 88.3791 25.0991 77.057 30.5581 70.995L35.9273 65.0292L39.1988 61.2958C41.1169 59.1083 33.5474 61.6422 28.9672 53.3799C28.6401 52.7833 28.3065 52.3471 27.9793 52.0777C27.9152 52.02 27.8126 52.0457 27.7805 52.1226C27.0877 53.675 26.2987 57.3571 24.3421 56.4911C21.1219 55.0606 21.1283 46.2787 21.3464 43.1291L21.5453 40.2809C21.7634 37.0671 19.9095 42.2053 17.7092 41.7306C12.5325 40.6081 18.3379 20.8825 30.2181 12.3508C31.8539 11.1769 29.025 10.7856 28.3771 9.14344C26.6451 4.7493 39.263 3.39578 46.7491 5.73718C47.9935 6.12848 49.0969 5.59603 50.0655 4.87116C52.9393 2.72861 59.8224 -1.68476 63.2159 0.67589C64.8388 1.8049 63.806 4.20403 62.4782 5.24323C58.3919 8.45705 56.9614 7.85407 58.8538 9.31023C62.5359 12.1456 64.1268 11.4399 67.7383 16.7514L73.0818 24.6031C74.6471 26.8996 76.1674 31.9096 73.2551 32.0828C71.7155 32.1726 70.5287 31.73 69.188 31.1206C67.0006 30.1263 68.0847 34.9887 68.4118 36.6822C69.4061 41.7499 69.9707 51.4362 69.3228 56.1255C69.0084 58.4027 67.2059 59.6408 64.935 59.2174C61.6122 58.5952 60.2202 54.2908 58.5074 55.5481C56.9229 56.7092 54.6906 57.2994 53.5872 58.9223C50.7134 63.124 55.7362 67.8902 56.4611 69.4169C63.4917 84.1902 67.2636 122.807 68.1938 140.102C68.5658 147.023 68.9571 156.203 71.7668 162.156L75.9043 170.938C78.0725 175.531 79.9521 174.588 81.8573 180.072C85.1994 189.695 83.4738 190.612 86.9122 196.911L126.004 268.532L151.522 315.232C154.569 320.807 156.269 315.476 161.561 322.167C163.114 324.13 163.819 326.368 163.062 328.588C162.305 330.807 160.419 332.847 157.655 333.014C154.89 333.181 152.407 331.718 150.996 330.089C146.955 325.419 151.342 323.674 148.315 318.183L81.9984 197.873C80.8245 195.744 79.9649 194.429 78.0597 193.171C74.3905 190.753 72.3121 184.146 68.9892 180.316C68.7198 179.45 68.2258 179.45 68.1809 180.335C67.3919 187.18 64.6913 191.722 64.2166 197.456C63.8189 202.3 60.6115 201.453 59.3028 205.616L56.1788 215.559C54.6329 220.486 52.548 224.95 53.5744 228.049C57.3527 239.467 61.5993 250.321 66.3014 261.399L71.6385 273.972C78.7846 290.811 84.8145 305.488 95.6812 320.345C99.4788 325.534 102.981 330.576 106.208 336.132C107.1 337.671 111.288 343.951 108.588 345.151L108.607 345.164ZM42.7142 55.4776C43.2915 55.5353 43.6122 54.8425 43.1953 54.4448C37.005 48.5817 38.3457 46.1184 34.2338 42.4235C33.7206 41.9616 33.6564 40.839 34.4326 40.2231C38.4932 37.0222 47.6279 26.2581 50.6813 21.4213C51.5281 20.0807 53.5295 20.4143 54.6521 21.1327C62.6578 26.2902 64.4282 34.1612 65.5188 31.685C66.1667 30.2289 65.2044 28.7342 65.5637 26.9637C65.801 25.7834 67.1097 26.0593 67.7896 26.9381C69.7012 29.427 72.9022 31.1847 72.7803 29.0678C72.6905 27.5603 71.8502 26.4826 71.0996 25.3665L66.2308 18.1242C62.1831 12.1007 57.1539 11.9018 54.7098 9.04078C53.3563 7.45632 58.8346 5.70508 61.5095 3.42141C63.0427 2.11279 60.3228 1.34302 55.377 3.83196C51.0021 6.03224 49.5587 9.04081 46.7747 7.7835C42.5474 5.87189 35.1639 5.67945 31.0969 8.22613C30.9943 8.29028 31.0392 8.45061 31.1547 8.46985C43.1119 10.3045 33.5666 10.5418 27.1903 17.7393C17.7349 28.4135 16.4712 40.8903 19.3129 38.7093C21.3464 37.144 22.4626 34.7321 24.5923 32.8461C25.5096 32.0314 26.5296 33.2503 25.9715 34.3536C23.3158 39.6202 21.8404 49.0692 24.9708 53.2003C25.0414 53.2901 25.1825 53.2516 25.2017 53.1426L26.8503 44.829C27.0107 44.0272 28.2937 43.6422 28.5438 44.2773C29.66 47.1191 29.1083 54.1497 36.2416 57.5624C39.4041 59.0763 38.1532 54.9965 42.7013 55.4776H42.7142ZM56.3328 33.9815C61.3299 33.725 61.1439 33.7185 61.8559 33.7378C67.084 33.8532 54.1902 19.1954 51.759 23.4484C49.3278 27.7015 46.2551 30.9409 42.9258 34.3985C42.5281 34.8091 42.5153 35.5981 43.1375 35.4826C49.0391 34.3665 53.568 35.7392 54.7098 32.2816C56.2815 27.5154 57.3078 27.6052 57.4233 28.5674C57.5003 29.2153 55.3 34.0393 56.3328 33.9815ZM67.0327 57.3122C67.0968 57.3122 67.161 57.2673 67.1738 57.2031C68.059 52.2317 67.6613 47.9594 67.2765 43.2766L66.5323 36.5667C65.4931 36.6245 65.5829 37.484 65.7369 38.4078C65.7369 38.4142 65.7369 38.427 65.7369 38.4334C65.3199 46.2402 64.6207 47.1447 61.1695 53.4377C61.1503 53.4762 61.1439 53.5275 61.1695 53.566C62.2023 55.5995 63.8638 57.1839 67.0327 57.3122ZM55.903 45.4769C54.7483 45.5346 55.2358 42.6993 54.6329 41.4997C54.6008 41.4292 54.511 41.4099 54.4468 41.4548C52.5801 42.7827 53.4269 43.6872 49.2572 43.8604C42.6179 44.1362 44.5424 38.8504 42.9323 38.4398C41.3221 38.0293 39.6735 38.4719 38.4162 39.3892C35.1511 41.7755 40.5716 53.9059 47.6151 55.5225C55.0113 57.216 61.8623 51.789 62.7797 44.4377C62.7861 44.3607 62.7283 44.2901 62.6514 44.2901L59.2323 44.1618C59.2323 44.1618 58.7832 44.0656 58.764 44.0592C57.9365 43.5845 57.5003 42.6929 56.9678 41.2239C55.9864 39.8768 57.3976 45.4063 55.9094 45.4769H55.903ZM50.7519 59.5253C50.3927 58.4155 49.655 58.268 48.8275 58.1525L44.7925 57.4854C44.722 57.4726 44.6514 57.5239 44.6386 57.6009C44.3307 60.2502 44.2024 62.4954 44.7476 65.0677C44.7476 65.0934 44.7669 65.119 44.7861 65.1383C46.1974 66.6008 48.1667 67.005 50.0783 66.5495C50.1297 66.5367 50.1746 66.4918 50.181 66.4405C50.5659 64.1247 50.63 62.2837 50.7519 59.5317V59.5253ZM42.1689 58.6208C44.3756 56.4077 41.9829 56.9016 41.7583 56.9016C41.5338 56.9016 37.6721 58.3129 40.8859 59.0313C41.1105 59.0827 41.5274 59.0313 41.7583 59.0313C41.9893 59.0313 42.0085 58.7812 42.1689 58.6208ZM55.7554 109.407C55.2038 104.467 55.5566 99.7718 55.3 94.7682L54.7227 83.5808C54.6842 82.8495 55.0242 82.285 55.2358 81.9964C55.4347 81.727 56.5252 81.5088 56.7112 82.1824C57.9108 86.3969 57.3335 100.118 58.1161 107.893C59.2002 118.695 56.0569 131.397 59.6236 137.76C62.0676 142.122 63.7098 146.253 65.724 149.3C65.7882 149.403 65.955 149.358 65.9678 149.236C66.2757 146.433 66.0448 144.258 65.8588 141.744L64.3962 122.275C63.4853 110.177 59.181 79.4561 53.6129 69.4747C52.6122 67.6785 47.6279 70.7384 43.8624 67.7555C42.3357 66.5495 42.2395 64.7405 41.5467 63.0599C41.5082 62.9701 41.3927 62.9508 41.3286 63.0278C35.9209 69.2053 29.0506 73.6956 29.3008 81.6564C30.1026 107.277 38.2687 115.809 47.4868 137.574C50.4247 144.521 53.7027 151.013 57.8082 157.3L66.6991 170.912L71.5551 178.95C71.5936 179.007 71.6642 179.033 71.7283 179.001C73.7875 177.904 76.0262 176.114 74.4738 173.356C72.4403 169.744 71.0483 166.133 69.2073 162.432L54.5623 132.956C50.3093 124.392 46.794 115.475 43.9907 106.334C41.5466 98.3734 39.8596 95.4161 37.0434 87.1474C37.0306 87.109 37.037 87.0576 37.0627 87.0256C37.8645 85.8517 38.9486 85.9928 39.449 87.1474C46.0883 102.453 47.4739 112.178 54.4789 126.746C54.4853 126.759 54.4917 126.778 54.4917 126.797C54.5046 127.849 55.2679 127.721 55.5373 126.733C55.3385 119.651 56.5509 116.412 55.7683 109.413L55.7554 109.407ZM61.625 197.918C62.1831 193.377 62.831 188.97 62.3114 184.396L60.5922 169.186C60.3292 166.883 59.6941 164.812 58.4625 162.945C54.3763 156.767 50.6108 150.693 47.583 143.925L41.4055 130.107C38.2366 123.019 34.1376 116.54 31.9629 108.74C31.8603 107.733 30.8596 107.938 30.8019 108.9L30.0898 121.056C30.0898 121.056 30.0898 121.056 30.0898 121.063L30.0706 137.042C30.0706 139.948 30.3656 142.668 30.0513 145.548L27.6009 168.224C26.613 177.352 26.1832 186.141 26.1575 195.333C26.1575 196.77 26.7092 197.732 28.0884 198.002C33.6885 199.092 39.0769 199.779 44.7861 200.33C48.8274 200.722 61.0733 202.434 61.6314 197.925L61.625 197.918ZM65.6984 182.754L65.8267 173.581C65.8267 173.581 65.8267 173.536 65.8139 173.516C65.4482 172.74 64.9414 172.176 64.1203 171.861C64.0369 171.829 63.9472 171.893 63.9407 171.977C63.6521 175.325 63.5751 178.199 64.6656 181.342C64.6656 181.355 64.6656 181.362 64.672 181.375C64.7041 182.183 64.7426 183.408 65.6984 182.754ZM80.4204 192.402C80.4204 192.402 80.4589 192.414 80.4717 192.414C81.9471 192.459 82.4218 191.638 82.4923 190.522C82.672 189.059 82.5244 187.789 82.0177 186.442L79.4389 179.578C79.0476 178.546 78.5601 177.744 77.7454 177.077C77.7005 177.038 77.6364 177.032 77.585 177.07C75.6349 178.456 71.9592 180.688 73.3384 183.087C74.7176 185.486 77.6107 191.337 80.414 192.408L80.4204 192.402ZM159.81 329.319C162.825 325.374 157.283 320.178 155.172 320.864C155.108 320.884 155.069 320.954 155.089 321.018C155.345 322.218 156.173 323.738 155.525 324.213C154.229 325.175 152.888 324.88 151.875 325.201C151.811 325.22 151.772 325.284 151.785 325.348C152.042 327.491 153.171 329.204 154.377 329.807C155.974 330.609 158.489 331.045 159.81 329.313V329.319Z" fill="#E8E8E8"/>
</svg>
