<svg width="394" height="531" viewBox="0 0 394 531" fill="none" xmlns="http://www.w3.org/2000/svg">
<path d="M-173 313.938C-171.624 314.388 -166.947 315.209 -162.832 315.338C-154.708 315.591 -143.04 312.237 -126.09 306.561C-114.693 302.746 -102.816 300.368 -94.9751 299.104C-82.5137 297.094 -70.5089 297.111 -59.7223 297.501C-42.2122 298.133 -29.0042 298.807 -15.8397 296.847C-5.17661 295.26 13.5064 291.982 23.774 290.308C37.5832 288.057 43.1017 286.931 49.8025 285.347C69.6842 280.647 87.1012 272.483 95.1317 269.215C101.447 266.645 112.866 265.105 126.341 262.974C146.067 259.855 160.914 261.865 170.487 261.356C178.41 260.935 189.922 257.892 196.79 255.926C203.805 253.918 210.375 252.283 219.316 249.088C229.524 245.439 233.966 242.927 239.448 240.235C246.673 236.687 261.184 235.076 271.43 234.09C277.269 233.528 282.081 232.94 287.951 232.443C299.949 231.428 315.183 228.409 329.17 224.78C347.949 219.612 352.88 218.476 355.268 217.863C356.392 217.567 357.335 217.305 358.465 217.013" stroke="#B6A3C0" stroke-width="5" stroke-linecap="round"/>
<path d="M363.825 204.426L364.238 197.001L364.499 193.368L364.521 189.282C364.521 188.966 364.136 188.911 363.936 189.156C361.236 192.428 358.549 195.503 355.515 198.49C353.241 200.729 351.232 202.99 349.19 205.413C348.23 206.549 345.524 208.601 345.072 207.198C344.563 205.615 346.885 202.558 347.905 201.133C350.297 197.798 352.497 194.529 354.615 191.013C356.622 187.68 358.832 184.663 360.937 181.403L363.634 177.222C364.871 175.308 364.849 172.526 364.938 169.589L365.132 163.276C365.144 162.874 365.109 162.366 364.693 162.43C364.012 162.534 363.484 162.822 362.937 162.586C361.977 162.173 362.403 159.266 362.54 158.27L363.357 152.285L364.181 142.238L365.275 132.209L367.364 114.856C367.752 111.628 365.997 114.308 361.802 113.049C360.091 112.534 360.702 109.621 361.01 107.829C362.13 101.351 363.026 95.0406 363.694 88.4885C364.038 85.1221 365.847 80.3068 367.24 77.164C369.317 72.4835 370.891 72.1434 373.6 68.4278C373.982 67.904 374.503 66.2928 373.921 66.1305C371.504 65.4474 365.526 66.7278 365.695 64.2098L366.114 58.0253C366.299 55.3328 366.741 52.7842 367.688 50.2816C368.881 47.1327 373.861 45.8982 377.108 45.2029C381.21 44.3238 383.665 46.37 384.889 50.0121C386.33 54.3066 386.912 58.6808 386.769 63.2143C386.702 65.334 381.557 65.9895 379.754 65.7843C378.831 70.4893 382.11 68.2716 384.358 71.9505C386.74 75.8499 386.635 79.2377 387.799 83.0881C390.155 90.8778 390.391 94.2687 392.251 101.688C392.731 103.608 393.911 105.903 392.051 107.293C391.494 107.71 390.944 108.028 390.302 108.298L385.478 110.317C384.943 110.54 384.651 111.101 384.66 111.704L384.743 117.105L385.188 125.179C385.319 127.562 385.474 129.853 385.837 132.194L387.036 139.91L388.146 147.794C388.712 151.816 389.573 155.599 391.09 159.373C391.386 160.111 391.068 160.987 390.375 161.321C385.675 163.582 382.549 161.502 382.317 162.853C382.084 164.213 381.639 165.353 380.981 166.538L379.038 170.039C378.268 171.427 377.664 172.796 376.739 174.089L372.344 180.215C371.784 180.993 371.444 181.835 371.336 182.816L369.574 198.634L368.585 205.324C368.299 207.266 366.699 215.276 365.838 216.55C365.303 217.337 364.181 217.475 363.57 216.7C362.534 215.389 363.643 207.373 363.809 204.426H363.825ZM384.485 54.4292C384.791 58.1111 386.085 61.7471 382.752 64.1976C382.199 64.1792 382.177 64.5774 382.603 64.5836C384.078 64.0261 386.015 64.3936 385.843 62.3811C385.121 53.9482 386.203 58.7268 383.935 50.3521C383.143 47.4206 380.956 45.6379 377.874 46.1035C375.387 46.4802 373.12 47.2552 370.903 48.312C367.971 49.7119 367.488 53.55 367.256 56.5029L366.722 63.346C366.684 63.8361 366.76 64.5989 367.351 64.6785C368.595 64.8439 373.508 65.187 373.832 64.703C374.09 64.314 372.21 62.3046 371.877 61.018L370.951 61.8849C370.703 62.1177 370.372 61.4469 370.541 61.0915C373.158 55.6269 373.336 51.0781 378.431 47.8127C380.482 46.4956 384.269 51.8561 384.479 54.4292H384.485ZM372.799 58.4695C372.055 60.485 374.103 63.3093 375.47 64.3814C377.674 66.1121 380.876 64.7582 382.743 62.8774C384.966 60.6382 383.868 54.0432 381.938 51.0137C381.248 49.9294 379.575 48.0302 378.243 49.1483C377.642 49.6537 373.839 52.9405 376.068 53.0752C378.876 53.2468 378.151 56.3038 378.955 58.4879C379.178 59.0882 378.822 59.3946 378.141 59.2353L377.178 55.0908C377.015 54.3985 376.516 54.08 375.798 54.0861C374.945 54.0922 374.281 54.4567 373.982 55.2654L372.799 58.4725V58.4695ZM385.207 103.624C385.951 103.691 386.139 103.394 386.412 103.14C387.433 102.239 390.006 97.7117 388.855 97.2155C388.362 97.0041 384.676 99.228 384.912 100.484C384.851 101.574 384.791 102.496 385.204 103.624H385.207ZM371.536 102.291C369.526 100.416 365.923 104.435 364.779 106.056C363.523 107.832 374.522 105.076 371.536 102.291ZM365.09 215.87C365.73 214.378 366.044 212.853 366.372 211.236L368.118 202.573C368.382 201.265 368.496 199.982 368.639 198.649L369.425 191.356L370.977 177.614L371.663 172.355C372.131 168.771 372.328 165.117 372.354 161.701C371.132 161.701 366.874 161.983 366.385 162.384C366 162.7 366.041 163.576 366.025 164.146L365.685 175.832L365.539 183.477C365.481 186.522 365.558 189.404 365.45 192.462L365.316 196.297C365.24 198.478 365.068 200.551 364.903 202.745L364.159 212.617C364.108 213.291 364.146 218.063 365.084 215.873L365.09 215.87ZM379.401 167.356C380.059 166.127 381.754 163.227 381.305 162.234C380.946 161.435 375.654 161.337 374.341 161.367C373.769 161.38 373.454 161.815 373.416 162.363C373.222 165.242 373.209 167.968 372.799 170.802C372.602 172.171 372.465 173.448 372.328 174.836L372.016 178.006C371.978 178.389 372.331 178.506 372.551 178.212C376.535 172.854 376.316 173.102 379.397 167.359L379.401 167.356ZM352.965 199.654C355.897 196.735 358.683 193.874 361.338 190.709C363.211 188.476 364.744 187.297 364.677 185.303C364.629 183.9 364.96 177.167 364.101 178.441L360.231 184.179C355.846 190.682 353.137 195.598 348.503 202.016C348.332 202.251 345.263 206.681 346.408 206.31C347.985 205.802 351.035 201.571 352.965 199.651V199.654Z" fill="black"/>
</svg>
