<svg width="894" height="680" viewBox="0 0 894 680" fill="none" xmlns="http://www.w3.org/2000/svg">
<path d="M604.498 262.246C605.543 261.833 608.783 259.863 611.375 257.653C616.489 253.292 622.207 244.05 630.163 229.98C635.511 220.52 641.786 211.942 646.062 206.524C652.857 197.913 660.259 191.182 667.074 185.433C678.136 176.101 686.566 169.22 693.817 160.254C699.69 152.991 709.762 139.868 715.353 132.758C722.873 123.197 725.779 119.194 729.213 114.16C739.401 99.2251 746.554 82.8996 750.069 75.7697C752.833 70.1632 759.193 62.5132 766.559 53.2356C777.344 39.6541 787.369 32.9219 793.043 27.1353C797.738 22.3466 803.497 13.4415 806.866 8.00815C810.308 2.45777 813.638 -2.54282 817.747 -10.1265C822.436 -18.784 824.072 -23.2923 826.27 -28.5286C829.167 -35.4297 837.399 -44.8736 843.279 -51.4203C846.629 -55.1511 849.335 -58.3252 852.733 -62.0216C859.679 -69.5759 867.74 -80.5538 874.766 -91.3187C884.07 -106.01 886.61 -109.69 887.813 -111.524C888.375 -112.391 888.841 -113.131 889.409 -114" stroke="#B6A3C0" stroke-width="5" stroke-linecap="round"/>
<path d="M614.683 256.703L611.734 253.562C611.222 253.019 610.439 252.792 609.676 252.909C606.27 253.43 601.149 253.415 597.712 253.128C596.968 253.065 596.73 253.531 596.535 254.095L594.069 261.116C593.648 262.319 591.947 266.219 590.489 265.661C589.321 265.212 589.897 260.636 590.06 259.438L590.872 253.582C591.245 250.882 587.977 252.988 587.469 250.8C586.997 248.769 587.502 245.037 587.852 242.75C588.395 239.199 588.633 235.777 588.924 232.196L590.007 218.914C590.448 213.518 590.281 209.809 590.822 204.8C591.161 201.665 590.237 201.658 590.504 198.922L591.117 192.634L592.001 180.911C592.15 178.933 592.187 177.085 592.319 175.134L592.723 169.163C592.784 168.262 593.37 163.918 592.442 165.756C591.403 167.813 590.026 169.49 588.763 171.362L586.18 175.185L582.987 180.014C581.482 182.293 579.913 184.382 578.233 186.528C577.187 187.861 574.119 191 572.918 190.671C571.606 190.311 573.629 186.142 574.245 185.166L576.208 182.058C578.886 177.816 581.158 173.537 583.409 169.046L589.477 156.932L592.884 149.398C594.173 146.544 595.513 143.911 597.764 141.743C598.815 140.733 598.512 138.775 597.309 138.348C596.34 138.005 595.619 137.456 594.941 136.717C591.674 133.159 593.537 129.417 593.067 128.412L592.481 127.147C591.288 124.576 594.864 121.1 596.963 119.814C596.865 119.29 595.529 117.895 596.046 117.34C596.564 116.785 597.874 117.168 597.947 116.126L598.083 114.202C598.132 113.516 598.553 113.06 598.964 112.855C600.043 112.321 600.801 113.034 601.583 113.802C602.253 112.993 604.745 111.097 605.536 112.533C605.965 113.313 605.985 114.796 606.178 114.922C606.308 115.006 611.136 112.834 611.058 115.621C611.01 117.279 609.694 118.202 610.332 118.333L611.985 118.674C612.708 118.824 613.284 119.263 613.487 119.974C613.803 121.073 611.982 121.843 611.14 122.303C612.181 123.099 614.037 124.203 613.619 125.398C613.482 125.789 613.123 126.12 612.596 126.247L610.972 126.644L611.029 128.216C611.069 129.28 610.3 129.967 609.269 129.868L607.796 129.726C607.41 130.268 607.431 130.963 607.059 131.578C605.312 134.482 605.714 136.284 603.21 137.865C602.729 138.168 602.578 138.725 602.549 139.282C602.424 141.496 604.906 140.34 606.988 143.615C608.55 146.07 611.456 153.76 612.466 156.808C614.972 164.355 616.335 169.764 617.963 177.534L619.394 184.371C619.967 187.103 622.606 201.499 620.736 202.829C619.425 203.761 618.294 199.37 618.036 198.456C617.079 195.06 615.919 191.881 614.668 188.596C614.209 187.396 611.693 178.666 611.731 178.705C611.339 178.299 611.706 182.021 611.771 182.8C612.081 186.636 612.225 190.331 612.02 194.171C611.935 195.766 612.004 197.271 612.077 198.857C612.148 200.442 610.691 200.357 610.924 201.959C611.173 203.672 611.591 205.242 611.914 206.934L612.634 210.722C613.061 212.962 613.484 215.104 613.728 217.382L614.754 227.047C615.014 229.483 615.103 231.829 615.228 234.283L615.608 241.92C615.713 244.012 616.18 245.959 616.655 247.982C617.26 250.566 616.035 250.545 617.115 252.284C618.393 254.344 621.973 259.209 620.921 260.897C619.8 262.696 615.866 257.949 614.687 256.694L614.683 256.703ZM598.833 132.625L598.329 129.463C598.211 128.724 598.039 127.854 597.403 127.385C596.535 126.746 595.306 126.808 594.56 127.471L596.499 127.697C597.947 127.704 598.038 132.286 598.047 133.397C598.436 133.318 598.796 133.09 598.83 132.622L598.833 132.625ZM601.576 131.396C601.893 130.905 602.038 130.452 601.889 130.078C601.73 129.676 601.253 129.642 600.992 129.996C600.701 130.392 600.677 130.953 600.873 131.367C601.007 131.647 601.361 131.728 601.576 131.396ZM596.499 130.547C596.484 130.092 596.304 129.799 596.094 129.725C595.896 129.652 595.503 129.568 595.397 129.802C595.171 130.305 595.017 131.077 595.561 131.44C596.03 131.752 596.515 131.052 596.499 130.547ZM610.555 199.872C611.255 199.122 610.824 196.049 610.943 193.943C611.141 190.432 610.872 187.091 610.713 183.608L610.584 180.783L609.886 174.144C609.759 172.942 609.6 171.847 609.194 170.723L607.08 164.847C606.182 162.354 605.277 159.987 604.115 157.614C603.735 156.841 603.016 155.64 603.637 155.375C604.642 154.945 607.622 163.308 608.065 164.551L610.333 170.92L613.309 180.405L615.343 187.406C615.407 187.631 615.584 187.889 615.83 187.844C617.338 187.566 618.967 187.368 618.678 186.011L616.004 173.366C614.272 165.182 610.388 152.648 606.728 145.222C605.827 143.398 603.185 140.761 601.832 142.229C600.247 143.946 598.704 142.074 598.03 142.868C596.297 144.902 595.043 147.187 593.938 149.644L590.911 156.375C588.745 161.19 586.441 165.738 583.899 170.368L578.599 180.017C578.095 180.934 579.634 181.832 580.128 181.909C580.415 181.954 580.651 181.683 580.807 181.448L583.553 177.345C585.282 174.763 586.992 172.297 588.702 169.698L592.172 164.424C594.191 161.356 592.905 160.519 593.26 156.594C593.298 156.141 594.166 156.107 594.199 156.587C594.426 159.619 594.376 162.424 594.13 165.371L593.223 176.289C593.066 178.154 592.956 179.878 592.906 181.729C592.782 186.355 592.383 190.833 591.928 195.461C591.758 197.188 590.939 201.451 592.284 201.7L596.143 202.417C599.243 202.993 608.729 201.839 610.56 199.875L610.555 199.872Z" fill="#B6A3C0"/>
<path d="M584.055 262.245C582.82 261.959 578.947 260.465 575.812 258.714C569.623 255.258 554.047 239.901 543.977 228.131C537.207 220.218 521.234 212.101 515.029 209.076C510.798 207.013 487.687 190.347 479.445 185.797C466.066 178.411 446.796 168.808 437.853 161.466C430.61 155.519 401.5 128.864 394.591 123.031C385.3 115.185 362.834 103.944 358.551 99.776C345.843 87.4092 308.234 65.214 303.729 59.2124C300.186 54.493 261.547 33.8311 252.45 26.2241C239.134 15.0883 222.334 -3.73904 215.411 -8.40533C209.681 -12.2669 165.777 -52.2623 161.544 -56.7857C157.22 -61.4067 120.519 -93.2756 115.299 -99.6325C109.341 -106.889 90.8647 -126.234 88 -130.67" stroke="url(#paint0_linear_606_433)" stroke-width="5" stroke-linecap="round"/>
<path d="M-173 462.938C-171.624 463.388 -166.947 464.209 -162.832 464.338C-154.708 464.591 -143.04 461.237 -126.09 455.561C-114.693 451.746 -102.816 449.368 -94.9751 448.104C-82.5137 446.094 -70.5089 446.111 -59.7223 446.501C-42.2122 447.133 -29.0042 447.807 -15.8397 445.847C-5.17661 444.26 13.5064 440.982 23.774 439.308C37.5832 437.057 43.1017 435.931 49.8025 434.347C69.6842 429.647 87.1012 421.483 95.1317 418.215C101.447 415.645 112.866 414.105 126.341 411.974C146.067 408.855 160.914 410.865 170.487 410.356C178.41 409.935 189.922 406.892 196.79 404.926C203.805 402.918 210.375 401.283 219.316 398.088C229.524 394.439 233.966 391.927 239.448 389.235C246.673 385.687 261.184 384.076 271.43 383.09C277.269 382.528 282.081 381.94 287.951 381.443C299.949 380.428 315.183 377.409 329.17 373.78C347.949 368.612 352.88 367.476 355.268 366.863C356.392 366.567 357.335 366.305 358.465 366.013" stroke="#B6A3C0" stroke-width="5" stroke-linecap="round"/>
<path d="M363.825 353.426L364.238 346.001L364.499 342.368L364.521 338.282C364.521 337.966 364.136 337.911 363.936 338.156C361.236 341.428 358.549 344.503 355.515 347.49C353.241 349.729 351.232 351.99 349.19 354.413C348.23 355.549 345.524 357.601 345.072 356.198C344.563 354.615 346.885 351.558 347.905 350.133C350.297 346.798 352.497 343.529 354.615 340.013C356.622 336.68 358.832 333.663 360.937 330.403L363.634 326.222C364.871 324.308 364.849 321.526 364.938 318.589L365.132 312.276C365.144 311.874 365.109 311.366 364.693 311.43C364.012 311.534 363.484 311.822 362.937 311.586C361.977 311.173 362.403 308.266 362.54 307.27L363.357 301.285L364.181 291.238L365.275 281.209L367.364 263.856C367.752 260.628 365.997 263.308 361.802 262.049C360.091 261.534 360.702 258.621 361.01 256.829C362.13 250.351 363.026 244.041 363.694 237.488C364.038 234.122 365.847 229.307 367.24 226.164C369.317 221.483 370.891 221.143 373.6 217.428C373.982 216.904 374.503 215.293 373.921 215.13C371.504 214.447 365.526 215.728 365.695 213.21L366.114 207.025C366.299 204.333 366.741 201.784 367.688 199.282C368.881 196.133 373.861 194.898 377.108 194.203C381.21 193.324 383.665 195.37 384.889 199.012C386.33 203.307 386.912 207.681 386.769 212.214C386.702 214.334 381.557 214.99 379.754 214.784C378.831 219.489 382.11 217.272 384.358 220.95C386.74 224.85 386.635 228.238 387.799 232.088C390.155 239.878 390.391 243.269 392.251 250.688C392.731 252.608 393.911 254.903 392.051 256.293C391.494 256.71 390.944 257.028 390.302 257.298L385.478 259.317C384.943 259.54 384.651 260.101 384.66 260.704L384.743 266.105L385.188 274.179C385.319 276.562 385.474 278.853 385.837 281.194L387.036 288.91L388.146 296.794C388.712 300.816 389.573 304.599 391.09 308.373C391.386 309.111 391.068 309.987 390.375 310.321C385.675 312.582 382.549 310.502 382.317 311.853C382.084 313.213 381.639 314.353 380.981 315.538L379.038 319.039C378.268 320.427 377.664 321.796 376.739 323.089L372.344 329.215C371.784 329.993 371.444 330.835 371.336 331.816L369.574 347.634L368.585 354.324C368.299 356.266 366.699 364.276 365.838 365.55C365.303 366.337 364.181 366.475 363.57 365.7C362.534 364.389 363.643 356.373 363.809 353.426H363.825ZM384.485 203.429C384.791 207.111 386.085 210.747 382.752 213.198C382.199 213.179 382.177 213.577 382.603 213.584C384.078 213.026 386.015 213.394 385.843 211.381C385.121 202.948 386.203 207.727 383.935 199.352C383.143 196.421 380.956 194.638 377.874 195.103C375.387 195.48 373.12 196.255 370.903 197.312C367.971 198.712 367.488 202.55 367.256 205.503L366.722 212.346C366.684 212.836 366.76 213.599 367.351 213.679C368.595 213.844 373.508 214.187 373.832 213.703C374.09 213.314 372.21 211.305 371.877 210.018L370.951 210.885C370.703 211.118 370.372 210.447 370.541 210.092C373.158 204.627 373.336 200.078 378.431 196.813C380.482 195.496 384.269 200.856 384.479 203.429H384.485ZM372.799 207.469C372.055 209.485 374.103 212.309 375.47 213.381C377.674 215.112 380.876 213.758 382.743 211.877C384.966 209.638 383.868 203.043 381.938 200.014C381.248 198.929 379.575 197.03 378.243 198.148C377.642 198.654 373.839 201.94 376.068 202.075C378.876 202.247 378.151 205.304 378.955 207.488C379.178 208.088 378.822 208.395 378.141 208.235L377.178 204.091C377.015 203.399 376.516 203.08 375.798 203.086C374.945 203.092 374.281 203.457 373.982 204.265L372.799 207.473V207.469ZM385.207 252.624C385.951 252.691 386.139 252.394 386.412 252.14C387.433 251.239 390.006 246.712 388.855 246.215C388.362 246.004 384.676 248.228 384.912 249.484C384.851 250.574 384.791 251.496 385.204 252.624H385.207ZM371.536 251.291C369.526 249.416 365.923 253.435 364.779 255.056C363.523 256.832 374.522 254.076 371.536 251.291ZM365.09 364.87C365.73 363.378 366.044 361.853 366.372 360.236L368.118 351.573C368.382 350.265 368.496 348.982 368.639 347.649L369.425 340.356L370.977 326.614L371.663 321.355C372.131 317.771 372.328 314.117 372.354 310.701C371.132 310.701 366.874 310.983 366.385 311.384C366 311.7 366.041 312.576 366.025 313.146L365.685 324.832L365.539 332.477C365.481 335.522 365.558 338.404 365.45 341.462L365.316 345.297C365.24 347.478 365.068 349.551 364.903 351.745L364.159 361.617C364.108 362.291 364.146 367.063 365.084 364.873L365.09 364.87ZM379.401 316.356C380.059 315.127 381.754 312.227 381.305 311.234C380.946 310.435 375.654 310.337 374.341 310.367C373.769 310.38 373.454 310.815 373.416 311.363C373.222 314.242 373.209 316.968 372.799 319.802C372.602 321.171 372.465 322.448 372.328 323.836L372.016 327.006C371.978 327.389 372.331 327.506 372.551 327.212C376.535 321.854 376.316 322.102 379.397 316.359L379.401 316.356ZM352.965 348.654C355.897 345.735 358.683 342.874 361.338 339.709C363.211 337.476 364.744 336.297 364.677 334.303C364.629 332.9 364.96 326.167 364.101 327.441L360.231 333.179C355.846 339.682 353.137 344.598 348.503 351.016C348.332 351.251 345.263 355.681 346.408 355.31C347.985 354.802 351.035 350.571 352.965 348.651V348.654Z" fill="black"/>
<path d="M381.882 207.161C380.921 207.183 380.896 206.163 381.258 205.574C381.545 205.109 381.98 205.023 382.39 205.412C382.683 205.691 382.791 205.982 382.788 206.218C382.785 206.503 382.619 207.143 381.878 207.158L381.882 207.161Z" fill="black"/>
<path d="M374.977 207.757C374.211 207.809 374.014 207.154 374.039 206.722C374.065 206.29 374.469 205.64 375.146 205.781C375.639 205.882 375.833 206.415 375.855 206.7C375.877 207.01 375.706 207.708 374.974 207.76L374.977 207.757Z" fill="black"/>
<defs>
<linearGradient id="paint0_linear_606_433" x1="232.5" y1="1.50003" x2="593.5" y2="268.5" gradientUnits="userSpaceOnUse">
<stop stop-color="#E6E3DA"/>
<stop offset="1" stop-color="#B6A3C0"/>
</linearGradient>
</defs>
</svg>
